<?xml version="1.0" encoding="UTF-8"?>
<svg version="1.1" xmlns="http://www.w3.org/2000/svg" width="1024" height="1024">
<path d="M0 0 C1.28583975 -0.00382555 2.57167949 -0.00765109 3.89648408 -0.01159257 C7.43612963 -0.0218093 10.97567318 -0.01970704 14.51532686 -0.01541197 C18.34435051 -0.01293315 22.17335033 -0.02197321 26.00236511 -0.02944946 C33.49264499 -0.04216669 40.98288897 -0.04399386 48.47317783 -0.0416492 C54.56500008 -0.03986248 60.65681148 -0.04162326 66.74863243 -0.04587364 C67.61733871 -0.04646883 68.48604499 -0.04706402 69.38107571 -0.04767724 C71.1461536 -0.04888906 72.91123148 -0.0501032 74.67630937 -0.05131962 C91.21114595 -0.06218378 107.74596211 -0.06003805 124.28079983 -0.05393478 C139.38617394 -0.04876711 154.49148354 -0.06001909 169.59684489 -0.07903299 C185.13041729 -0.09843506 200.66395921 -0.10666321 216.1975438 -0.10290974 C224.90907457 -0.10100123 233.62055045 -0.10345105 242.3320713 -0.11762428 C249.74871001 -0.12956931 257.16526004 -0.13090813 264.58190004 -0.11883412 C268.36089078 -0.11296715 272.13971955 -0.11178502 275.91869926 -0.12383652 C280.02746929 -0.13678671 284.13585794 -0.12617915 288.24462891 -0.11352539 C289.42199452 -0.12089968 290.59936014 -0.12827396 291.8124035 -0.13587171 C306.82160913 -0.0391547 320.97038208 3.15742028 332.25810242 13.58100891 C340.82484013 22.83652955 344.49596429 33.45666398 344.34916687 45.91523743 C343.86622329 56.60796592 339.58505883 64.42090719 332.21903992 72.06929016 C328.06214576 75.85503306 323.52573051 79.26507009 318.21723938 81.21324158 C315.67886663 82.9652169 315.67886663 82.9652169 315.35253525 85.21393967 C315.17435008 87.91180101 315.16400252 90.57022447 315.20097351 93.27388 C315.19530869 94.30372513 315.18964386 95.33357025 315.18380737 96.3946228 C315.17025381 99.81649144 315.19130857 103.23731046 315.21122742 106.65913391 C315.20572509 109.04835228 315.19759854 111.43756592 315.18696594 113.82676697 C315.16400969 120.14158295 315.16831401 126.45605407 315.18077087 132.77088928 C315.19900896 142.81309577 315.18873767 152.85509236 315.15491104 162.89725113 C315.14888903 166.37821376 315.1619769 169.8587187 315.17689514 173.33964539 C315.18687855 192.24077097 313.60979091 210.21737067 307.31278992 228.13569641 C307.09725464 228.7627951 306.88171936 229.3898938 306.65965271 230.03599548 C297.8484702 255.62504766 284.99814621 278.40083959 267.81278992 299.26069641 C267.09091492 300.21202454 266.36903992 301.16335266 265.62528992 302.14350891 C265.02716492 302.84218079 264.42903992 303.54085266 263.81278992 304.26069641 C263.15278992 304.26069641 262.49278992 304.26069641 261.81278992 304.26069641 C261.44153992 305.12694641 261.44153992 305.12694641 261.06278992 306.01069641 C259.62979003 308.5900962 258.02854315 310.32191233 255.81278992 312.26069641 C255.15278992 312.26069641 254.49278992 312.26069641 253.81278992 312.26069641 C253.81278992 312.92069641 253.81278992 313.58069641 253.81278992 314.26069641 C243.09744073 325.67487272 228.73326526 334.5436782 215.75028992 343.13569641 C213.02580607 344.93904373 210.30653401 346.74988955 207.59013367 348.56538391 C206.9817717 348.96441925 206.37340973 349.36345459 205.74661255 349.77458191 C198.55644122 354.58263557 192.81860059 360.51968936 189.43778992 368.51069641 C188.05444934 376.81073986 189.04661051 383.7483148 193.83476257 390.7726593 C199.85018701 398.33908616 208.86598712 403.40090381 216.93778992 408.51069641 C231.25329547 417.72691421 244.55319828 427.43036218 256.81278992 439.26069641 C258.16243835 440.51559875 258.16243835 440.51559875 259.53935242 441.79585266 C291.1777564 472.02101381 314.15268392 519.71427442 315.21391296 563.5983429 C315.38116394 573.11033246 315.27709608 582.62323492 315.15611267 592.13514709 C315.10405694 596.67492223 315.08193849 601.21484662 315.05693054 605.75483704 C315.0040336 614.59051966 314.91922415 623.42549681 314.81278992 632.26069641 C316.21960022 632.71098206 316.21960022 632.71098206 317.65483093 633.17036438 C326.81781651 636.33402063 334.81493224 643.58423344 339.31669617 652.10835266 C344.12820776 662.51273243 345.95574825 673.05066822 342.18778992 684.19819641 C340.08892733 689.16918674 337.35742193 693.21584869 333.81278992 697.26069641 C333.33454773 697.85495422 332.85630554 698.44921204 332.36357117 699.06147766 C325.08760491 707.32712194 312.89703788 712.72889191 301.98893321 713.44645762 C298.57511469 713.52426573 295.16653777 713.53681346 291.75183105 713.52812195 C290.4433477 713.53265306 289.13486435 713.53718417 287.78672999 713.54185259 C284.16997197 713.55404381 280.55330672 713.55382672 276.93653286 713.55146384 C273.0297618 713.55105469 269.12302009 713.56210428 265.21626282 713.57157898 C257.56749366 713.58816904 249.91875533 713.59368764 242.26996968 713.59480374 C236.04982486 713.59575523 229.82969018 713.59987059 223.60954857 713.60620499 C205.95931561 713.62381256 188.30910694 713.63304471 170.65886513 713.63154404 C169.23253471 713.63142417 169.23253471 713.63142417 167.77738953 713.63130188 C166.34930959 713.63117924 166.34930959 713.63117924 164.89237954 713.63105412 C149.46926311 713.63024153 134.0462444 713.64937366 118.62315623 713.67757861 C102.77214928 713.70633646 86.92118996 713.72011729 71.07015628 713.71839106 C62.17694545 713.71772812 53.28383706 713.72317802 44.3906498 713.74474716 C36.81762084 713.76299724 29.24474074 713.76727503 21.67169926 713.75372832 C17.81179602 713.74721768 13.95217807 713.74701191 10.09230232 713.76443481 C5.89754351 713.78317364 1.70343943 713.7705614 -2.49133301 713.75517273 C-3.69700351 713.76545986 -4.90267402 713.77574698 -6.14488 713.78634584 C-19.9185849 713.67513288 -32.59468242 709.50396996 -42.87471008 700.13569641 C-51.66853314 690.73755849 -55.80657284 680.11305016 -55.56611633 667.41694641 C-54.09271421 655.14365864 -46.49934273 645.80261092 -37.43721008 638.02632141 C-30.08986495 632.26069641 -30.08986495 632.26069641 -26.18721008 632.26069641 C-26.19387192 631.39277969 -26.20053375 630.52486298 -26.20739746 629.63064575 C-26.26812726 621.3520285 -26.3134932 613.07348867 -26.3426466 604.79469776 C-26.35813965 600.5409965 -26.37906838 596.28748301 -26.41352844 592.03388977 C-26.70644654 554.85927892 -26.70644654 554.85927892 -23.18721008 538.26069641 C-22.96267151 537.19423889 -22.73813293 536.12778137 -22.50679016 535.02900696 C-21.91799653 532.55080426 -21.24927211 530.13191423 -20.49971008 527.69819641 C-20.24479797 526.84435364 -19.98988586 525.99051086 -19.72724915 525.11079407 C-11.97585955 499.89794082 -0.16522092 476.5115768 16.81278992 456.26069641 C17.51009216 455.4280426 17.51009216 455.4280426 18.22148132 454.5785675 C27.07110384 444.04276007 36.00982581 434.84620999 46.81278992 426.26069641 C47.70997742 425.52335266 48.60716492 424.78600891 49.53153992 424.02632141 C57.85327793 417.3599829 66.75127985 411.70132575 75.79179382 406.05732727 C90.8965351 396.60157923 90.8965351 396.60157923 100.18778992 381.88569641 C101.47980711 374.3919967 100.52341635 367.94999098 96.42338562 361.47895813 C90.94768154 353.93731082 82.46961955 349.3209625 74.68778992 344.51069641 C65.25449686 338.57124091 56.31467321 332.46100541 47.81278992 325.26069641 C46.60189451 324.25283333 45.39095546 323.2450227 44.17997742 322.23725891 C32.64440121 312.56432464 22.85647726 302.28510188 13.81278992 290.26069641 C13.19661804 289.45116516 12.58044617 288.64163391 11.94560242 287.80757141 C-7.44956291 261.26681885 -21.00169715 228.88002444 -25.18721008 196.26069641 C-25.27408868 195.61380702 -25.36096727 194.96691763 -25.45047855 194.30042553 C-26.18040822 188.43742385 -26.29697808 182.69000701 -26.23384094 176.78730774 C-26.22108027 174.70436789 -26.20863843 172.62142607 -26.19647217 170.53848267 C-26.18855589 169.44739008 -26.18063961 168.35629749 -26.17248344 167.23214149 C-26.13013194 160.20573373 -26.14221107 153.17914932 -26.14237118 146.15263844 C-26.13936397 139.98551929 -26.11839259 133.81940752 -26.0605011 127.65254211 C-26.00540258 121.67000231 -25.99881585 115.6891564 -26.02519417 109.70644188 C-26.02642921 107.43102255 -26.00992618 105.15552124 -25.97527885 102.88036537 C-25.18317843 91.03255581 -25.18317843 91.03255581 -29.39506531 80.57835388 C-31.99168157 79.00486367 -34.28372376 78.09912404 -37.18721008 77.26069641 C-46.73304155 70.33315015 -53.10476608 60.95709023 -55.18721008 49.26069641 C-56.41359382 36.41773334 -53.01593629 26.43956654 -45.18721008 16.26069641 C-32.89032676 2.59487023 -17.55121982 -0.0560207 0 0 Z M5.81278992 84.26069641 C4.92977642 96.72068853 4.64986843 109.11943056 4.64482117 121.60835266 C4.6415956 123.51870751 4.63823064 125.42906213 4.63473511 127.3394165 C4.62879955 131.3135892 4.62688961 135.28774031 4.62748718 139.26191711 C4.62758897 144.31002766 4.61389387 149.35799812 4.59671497 154.40607548 C4.58550872 158.34158951 4.58357054 162.27707045 4.58409691 166.2125988 C4.5829314 168.07219873 4.57859199 169.93179993 4.57076454 171.79138374 C4.51351121 186.78390194 5.16064078 201.36906568 9.56278992 215.82319641 C9.8266449 216.71103821 10.09049988 217.59888 10.36235046 218.5136261 C18.25134852 244.4805035 31.68862416 267.14396424 49.81278992 287.26069641 C50.50372742 288.03542297 51.19466492 288.81014954 51.90653992 289.60835266 C64.31973336 302.76156341 80.24164542 312.39530967 95.30375671 322.19355774 C101.33799587 326.13841385 107.14077009 330.06623184 112.37504578 335.06782532 C113.75796245 336.47353798 113.75796245 336.47353798 115.81278992 336.26069641 C116.0847821 336.84593079 116.35677429 337.43116516 116.63700867 338.03413391 C117.79245479 340.22218803 119.07525006 341.96348339 120.62528992 343.88569641 C130.2408699 356.53406323 132.09364151 369.80858144 130.81278992 385.26069641 C127.91856023 401.84619228 117.63406703 413.41267839 104.2898407 422.84468079 C99.99720713 425.81948804 95.64552654 428.70435182 91.28935242 431.58491516 C90.4129586 432.16544647 90.4129586 432.16544647 89.51885986 432.75770569 C86.57551672 434.70665685 83.62799605 436.64852153 80.67094421 438.57661438 C47.6886011 460.21882742 23.86015694 489.37780526 11.12528992 526.76069641 C10.82735535 527.62718811 10.52942078 528.49367981 10.22245789 529.38642883 C6.03122453 542.03995058 5.5001925 553.99868097 5.51200867 567.20210266 C5.50811573 569.02005103 5.50377984 570.83799851 5.49902344 572.65594482 C5.49160509 576.44227571 5.49182366 580.22851322 5.49711609 584.0148468 C5.50295214 588.87402746 5.48585983 593.73283206 5.46277142 598.59195042 C5.44808189 602.33477011 5.447155 606.0774977 5.45028114 609.82034111 C5.44976706 611.61336458 5.4445131 613.40639309 5.43446922 615.1993885 C5.42219385 617.6934688 5.42883842 620.1867951 5.44047546 622.68086243 C5.43283173 623.42315094 5.42518799 624.16543945 5.41731262 624.93022156 C5.40551354 627.19163654 5.40551354 627.19163654 5.81278992 630.26069641 C8.99819907 632.38430251 9.77354265 632.51133239 13.42147827 632.515172 C14.37308492 632.5210042 15.32469156 632.52683639 16.30513477 632.53284532 C17.35268783 632.52906599 18.40024088 632.52528667 19.47953796 632.52139282 C20.59071078 632.52521837 21.7018836 632.52904392 22.84672832 632.53298539 C26.58936918 632.5433469 30.33185752 632.53931725 34.07450867 632.53535461 C36.74985772 632.53969931 39.42519539 632.54481674 42.10054016 632.55084229 C48.62435102 632.56360825 55.14812075 632.56538066 61.671942 632.56304202 C66.97266998 632.56126098 72.27338545 632.56300389 77.57411194 632.56726646 C78.70455037 632.56815925 78.70455037 632.56815925 79.85782593 632.56907007 C81.38866814 632.57028178 82.91951035 632.57149591 84.45035255 632.57271244 C98.81448136 632.58359509 113.17858672 632.58142194 127.54271686 632.5753276 C140.69344381 632.57015658 153.84409673 632.58141746 166.99480903 632.60042582 C180.48840359 632.61978075 193.98196309 632.62806442 207.47557163 632.62430257 C215.05507404 632.6223871 222.6345134 632.62491161 230.21400452 632.63901711 C236.66570605 632.65090199 243.11730573 632.65236841 249.56900859 632.64022694 C252.86256154 632.63431803 256.15588842 632.63490652 259.44943619 632.64522934 C263.0151471 632.65560282 266.58034992 632.64767186 270.14604187 632.63491821 C271.19359492 632.6422925 272.24114798 632.64966678 273.32044506 632.65726453 C274.74785503 632.64645472 274.74785503 632.64645472 276.20410156 632.63542652 C277.43936065 632.63550904 277.43936065 632.63550904 278.69957447 632.63559324 C281.34581893 632.16613393 282.22914005 631.40516476 283.81278992 629.26069641 C284.28551762 625.96907829 284.28551762 625.96907829 284.23271179 622.12495422 C284.24118134 621.40068237 284.24965088 620.67641052 284.25837708 619.93019104 C284.28184528 617.524557 284.28276482 615.11956161 284.28153992 612.71382141 C284.28865044 611.02442678 284.29635073 609.33503454 284.30461121 607.64564514 C284.318089 604.08789916 284.31961665 600.53037489 284.31376648 596.97261047 C284.30909949 593.3667979 284.32259746 589.76187477 284.3547821 586.15620422 C284.71022226 545.93495076 277.97104578 511.72817268 252.81278992 479.26069641 C252.06126648 478.28616516 251.30974304 477.31163391 250.53544617 476.30757141 C237.09013703 459.38869384 220.30392857 446.75062465 202.33622742 435.01069641 C170.28998867 414.04847111 170.28998867 414.04847111 162.81278992 399.26069641 C162.16503601 397.98065735 162.16503601 397.98065735 161.50419617 396.67475891 C156.45587483 384.48192744 156.86827267 367.43467584 161.41825867 355.15132141 C170.22226048 336.90212998 185.65894065 326.60835441 202.37528992 316.26069641 C239.0365241 293.49294972 266.49190567 259.38330436 279.18778992 217.94819641 C279.42658875 217.17306702 279.66538757 216.39793762 279.91142273 215.59931946 C284.29078896 200.49811124 284.10877745 185.58992971 284.07841492 169.99897766 C284.07976382 167.55612143 284.08170622 165.11326547 284.08421326 162.67041016 C284.08714779 157.57783932 284.08291676 152.48533907 284.0735321 147.39277649 C284.06207164 140.85448073 284.06874906 134.316348 284.08067703 127.77805805 C284.08788402 122.74678301 284.08561422 117.71554704 284.08042145 112.68427086 C284.07908518 110.27163359 284.08073187 107.8589928 284.08538055 105.44635963 C284.09043387 102.09051117 284.08275539 98.73493283 284.07157898 95.37910461 C284.07765167 93.87765396 284.07765167 93.87765396 284.08384705 92.34587097 C284.0782074 91.43635178 284.07256775 90.52683258 284.0667572 89.5897522 C284.06600315 88.7973026 284.0652491 88.004853 284.0644722 87.18838978 C283.98086961 85.02236804 283.98086961 85.02236804 281.81278992 83.26069641 C279.72998283 82.95920388 279.72998283 82.95920388 277.29312134 83.01180744 C275.85732271 83.00490925 275.85732271 83.00490925 274.39251804 82.9978717 C273.33358813 83.00301526 272.27465822 83.00815882 271.18363953 83.01345825 C270.06444846 83.01104384 268.9452574 83.00862942 267.79215145 83.00614184 C264.01642072 83.00047553 260.24085698 83.0091901 256.46513367 83.01777649 C253.76860616 83.01670433 251.07208973 83.01484713 248.37556458 83.01202393 C241.79646401 83.00697434 235.21741359 83.01263306 228.63831925 83.02187423 C220.98302853 83.03224181 213.32774875 83.03218847 205.67245233 83.03170165 C192.01707248 83.03120065 178.36171602 83.04037279 164.7063446 83.05488586 C151.44397048 83.06897404 138.18161694 83.07605667 124.91923523 83.07539368 C124.10245469 83.07535372 123.28567416 83.07531376 122.4441427 83.0752726 C121.62879985 83.07523224 120.813457 83.07519189 119.97340679 83.07515031 C104.89231022 83.07446104 89.81122243 83.08034725 74.73012871 83.08930353 C69.38901964 83.09232428 64.04791219 83.09338361 58.70680237 83.09383583 C52.20127571 83.0945169 45.69576385 83.09896669 39.19024348 83.10816864 C35.86853838 83.11279611 32.54685613 83.11529891 29.22514725 83.11457443 C25.63072143 83.11408697 22.03635754 83.11970753 18.44194031 83.12698364 C17.3830104 83.12543504 16.32408049 83.12388644 15.23306179 83.12229091 C14.2758627 83.12551536 13.31866362 83.1287398 12.3324585 83.13206196 C11.50195512 83.13276638 10.67145174 83.13347081 9.81578159 83.13419658 C7.74003619 83.13459463 7.74003619 83.13459463 5.81278992 84.26069641 Z " fill="#000000" transform="translate(362.1872100830078,176.7393035888672)"/>
<path d="M0 0 C13.0273019 11.58225665 18.28755221 31.39304072 20.32421875 48.06640625 C20.57534458 53.19794742 20.5593242 58.32106195 20.51953125 63.45703125 C20.51579039 64.89719443 20.51294851 66.3373602 20.51095581 67.77752686 C20.50340368 71.52572952 20.48383013 75.27377146 20.46154785 79.02191162 C20.44090545 82.86354398 20.4319152 86.70520289 20.421875 90.546875 C20.40057417 98.05345784 20.36654321 105.55990933 20.32421875 113.06640625 C-32.03346317 113.72257175 -84.38845738 114.17472556 -136.75058746 114.18978882 C-140.37830386 114.19138536 -144.00601361 114.19492697 -147.63372803 114.19897461 C-176.33017977 114.22747549 -204.99280598 113.97770924 -233.67578125 113.06640625 C-233.76901817 104.16412986 -233.8398156 95.26202504 -233.88302994 86.35936451 C-233.90378488 82.2241811 -233.93187698 78.08933504 -233.97753906 73.9543457 C-234.02143414 69.95371436 -234.04500893 65.95340471 -234.05529022 61.95255089 C-234.0626042 60.4365197 -234.07688335 58.92050341 -234.09870148 57.40461159 C-234.252958 46.22880012 -232.99360236 36.12339496 -227.67578125 26.06640625 C-226.41024414 26.09782715 -226.41024414 26.09782715 -225.11914062 26.12988281 C-185.37167304 26.98176831 -151.72313345 16.90695678 -114.68725586 3.23364258 C-105.61943343 -0.1087715 -96.55035411 -3.38963777 -87.3359375 -6.30859375 C-86.59839233 -6.54268951 -85.86084717 -6.77678528 -85.10095215 -7.01797485 C-57.1458692 -15.69812283 -24.88006386 -17.97902425 0 0 Z " fill="#2196E0" transform="translate(613.67578125,682.93359375)"/>
<path d="M0 0 C1.91231483 -0.00269937 3.82462831 -0.00658549 5.73693848 -0.01159668 C9.73117226 -0.01747078 13.72504653 -0.00899642 17.71923828 0.00976562 C22.8165779 0.03255385 27.91307483 0.01941952 33.01038361 -0.00452423 C36.95516203 -0.01903887 40.89974356 -0.01435034 44.8445282 -0.00401306 C46.72303876 -0.00136141 48.60156771 -0.00456002 50.48005676 -0.01393127 C63.52450245 -0.06473907 73.74894512 0.39984074 83.66015625 9.8125 C89.37123519 15.64283581 92.47418411 21.46385752 92.63671875 29.6875 C92.61706998 31.46898855 92.58172557 33.25036827 92.53125 35.03125 C92.51771484 35.9490625 92.50417969 36.866875 92.49023438 37.8125 C92.45523097 40.05271803 92.40613869 42.29165594 92.34375 44.53125 C93.13265625 44.82773437 93.9215625 45.12421875 94.734375 45.4296875 C97.84744427 46.7438874 98.77392492 47.54858235 100.34375 50.53125 C101.60347717 55.93008071 101.42632383 59.49773464 99.5234375 64.671875 C98.34375 66.53125 98.34375 66.53125 95.765625 68.37890625 C93.0816217 70.33221661 93.0816217 70.33221661 92.7421875 73.44921875 C92.73445312 74.52816406 92.72671875 75.60710937 92.71875 76.71875 C92.30494253 86.19388008 90.39621446 92.94208612 83.34375 99.53125 C77.09090946 104.35114792 71.33342554 105.81499174 63.5390625 105.9453125 C62.8150827 105.96467865 62.09110291 105.9840448 61.34518433 106.0039978 C59.05315602 106.06334886 56.76107626 106.10999878 54.46875 106.15625 C52.90622919 106.19447087 51.34372852 106.23352494 49.78125 106.2734375 C45.96886019 106.37056845 42.15666154 106.45048599 38.34375 106.53125 C38.01375 111.15125 37.68375 115.77125 37.34375 120.53125 C39.73463867 120.50768433 39.73463867 120.50768433 42.17382812 120.48364258 C48.10769566 120.42919537 54.04154124 120.39484583 59.97558594 120.36645508 C62.54007688 120.35140221 65.10454223 120.33095539 67.66894531 120.30493164 C71.36269463 120.26839533 75.05610246 120.25148806 78.75 120.23828125 C79.8898938 120.22279739 81.0297876 120.20731354 82.20422363 120.19136047 C89.63545941 120.18980208 95.76469062 120.66108644 101.76953125 125.4765625 C106.15667209 130.54493639 108.89322315 134.96192178 110.34375 141.53125 C110.50746094 142.2428125 110.67117188 142.954375 110.83984375 143.6875 C114.22334041 162.78196176 114.22334041 162.78196176 110.859375 169.4921875 C108.52361881 171.85351767 106.04543016 173.59883273 103.34375 175.53125 C101.38455183 177.05544723 99.42907511 178.58443534 97.4765625 180.1171875 C89.54447445 186.27296456 81.21085696 191.7964126 72.85498047 197.35400391 C53.56308533 210.20735368 33.05087161 224.40988517 25.34375 247.53125 C24.68375 247.53125 24.02375 247.53125 23.34375 247.53125 C22.79847656 246.43167969 22.25320313 245.33210937 21.69140625 244.19921875 C11.59274564 224.23269819 -1.96300668 211.86533428 -20.59375 199.96875 C-23.37655818 198.18019285 -26.15617498 196.38675776 -28.93359375 194.58984375 C-29.6014238 194.15782654 -30.26925385 193.72580933 -30.95732117 193.28070068 C-39.62666794 187.64072104 -47.89314637 181.70662154 -55.41796875 174.58984375 C-57.5289847 172.54998107 -57.5289847 172.54998107 -59.61328125 171.19140625 C-61.61094573 169.72707608 -62.55649734 168.76957011 -63.65625 166.53125 C-65.37956265 153.80190699 -63.54169193 139.41849736 -56.40234375 128.59375 C-52.71110299 124.23362668 -48.21964915 121.67470285 -42.65625 120.53125 C-40.8847938 120.44580403 -39.11042478 120.41350196 -37.33691406 120.41772461 C-36.27611633 120.41780014 -35.2153186 120.41787567 -34.12237549 120.41795349 C-32.41437775 120.42569542 -32.41437775 120.42569542 -30.671875 120.43359375 C-29.50114441 120.4350087 -28.33041382 120.43642365 -27.12420654 120.43788147 C-23.38486171 120.4434791 -19.64557674 120.4560312 -15.90625 120.46875 C-13.37109461 120.4737653 -10.83593829 120.47832816 -8.30078125 120.48242188 C-2.08591443 120.49344777 4.12890763 120.51071081 10.34375 120.53125 C10.34375 115.91125 10.34375 111.29125 10.34375 106.53125 C8.65507812 106.54285156 6.96640625 106.55445313 5.2265625 106.56640625 C2.97395945 106.5757921 0.72135519 106.58489144 -1.53125 106.59375 C-2.63984375 106.60212891 -3.7484375 106.61050781 -4.890625 106.61914062 C-26.88578021 106.68383226 -26.88578021 106.68383226 -35.66796875 98.703125 C-43.1457821 90.73933216 -43.99927021 84.08149949 -43.76171875 73.3125 C-43.72691406 72.3946875 -43.69210937 71.476875 -43.65625 70.53125 C-44.57857422 70.11166016 -44.57857422 70.11166016 -45.51953125 69.68359375 C-49.33124962 67.62791382 -51.31026865 64.56919404 -52.65625 60.53125 C-53.05362931 55.26597419 -52.45200927 52.02443454 -49.65625 47.53125 C-47.59375 45.15625 -47.59375 45.15625 -45.65625 43.53125 C-44.99625 43.53125 -44.33625 43.53125 -43.65625 43.53125 C-43.98625 42.54125 -44.31625 41.55125 -44.65625 40.53125 C-45.48008895 30.08957024 -43.92234819 20.10926736 -37.65625 11.53125 C-27.19515777 -0.25786507 -14.64416754 -0.0730556 0 0 Z M-22.21875 43.59375 C-25.29161784 48.81247527 -25.81620697 53.61808592 -24.65625 59.53125 C-22.40722386 65.20600794 -19.0376038 68.6066012 -13.65625 71.53125 C-8.28188291 73.3227057 -3.58830434 73.24301628 1.53125 70.90625 C6.33498898 68.24906367 9.58141447 64.81825659 11.34375 59.53125 C12.07092218 53.10097031 11.97514265 47.62663983 8.09765625 42.2578125 C3.99269504 38.21684846 -1.10475628 35.9998917 -6.71875 34.96875 C-13.20568144 36.21092836 -18.1401619 38.21348484 -22.21875 43.59375 Z M39.69140625 44.59375 C36.56261076 49.09196033 36.6577503 54.26932046 37.34375 59.53125 C39.57642906 65.18031297 42.9984258 68.6261825 48.34375 71.53125 C53.77435835 73.34145278 58.44118772 73.23222747 63.59375 70.84375 C67.87958189 68.45712989 70.22257875 65.54935825 72.59375 61.28125 C73.99799565 56.13234927 73.97010134 51.41030401 72.28125 46.34375 C68.84746108 41.35921769 64.31778962 37.10336569 58.34375 35.53125 C50.17869008 34.42786352 44.6514957 38.62808433 39.69140625 44.59375 Z M-20.65625 146.53125 C-22.34810697 151.6068209 -21.92083565 156.92999404 -21.95141602 162.24536133 C-21.96292849 163.63901936 -21.98336929 165.03263354 -22.01293945 166.42602539 C-22.05580813 168.44707989 -22.07180979 170.46682744 -22.08203125 172.48828125 C-22.09661377 173.69460205 -22.11119629 174.90092285 -22.1262207 176.14379883 C-21.55663308 180.24926808 -20.28577666 182.35601065 -17.65625 185.53125 C-14.1034474 187.96385184 -10.47633938 187.82089695 -6.32080078 187.8059082 C-5.22247421 187.8135746 -5.22247421 187.8135746 -4.10195923 187.82139587 C-1.6850768 187.83527837 0.73151998 187.83433595 3.1484375 187.83203125 C4.83228664 187.83591932 6.5161348 187.84025422 8.19998169 187.84501648 C11.72889383 187.85247609 15.25770592 187.85218959 18.78662109 187.84692383 C23.30147425 187.84113373 27.81591657 187.85805016 32.33070183 187.8812685 C35.80862815 187.89602582 39.28645603 187.89687476 42.76440811 187.89375877 C44.4285272 187.89427112 46.09265192 187.8994926 47.75674057 187.90957069 C50.08793284 187.92195489 52.41833144 187.9151318 54.74951172 187.90356445 C55.43231201 187.91120819 56.1151123 187.91885193 56.81860352 187.92672729 C61.36917332 187.87700463 64.46377385 186.88661927 68.34375 184.53125 C70.98353861 181.17225465 70.66636424 177.20124902 70.6796875 173.09765625 C70.6863443 172.38270493 70.6930011 171.6677536 70.69985962 170.93113708 C70.7099617 169.42246057 70.7146774 167.9137396 70.71435547 166.4050293 C70.71872946 164.1045533 70.75507198 161.8059963 70.79296875 159.50585938 C70.79883747 158.03646486 70.8028065 156.56706128 70.8046875 155.09765625 C70.81905853 154.41417618 70.83342957 153.73069611 70.84823608 153.02650452 C70.80296438 148.26338089 69.70106161 145.87800402 66.34375 142.53125 C63.31725142 141.01800071 60.17383648 141.35768223 56.85229492 141.33837891 C56.07974869 141.33020142 55.30720245 141.32202393 54.51124573 141.31359863 C51.94891132 141.28874071 49.38663232 141.27222777 46.82421875 141.2578125 C45.94968866 141.25248882 45.07515858 141.24716515 44.17412758 141.24168015 C39.54537456 141.21494697 34.91664854 141.19557253 30.2878418 141.18115234 C25.50587697 141.16450283 20.72460112 141.11972339 15.94289684 141.0687809 C12.26686304 141.03513147 8.59099326 141.02357749 4.91481972 141.01792526 C3.15214077 141.0112065 1.38947285 140.99596813 -0.37305641 140.97203445 C-2.84147982 140.94042761 -5.30803884 140.94033862 -7.77661133 140.94775391 C-8.50355194 140.93134857 -9.23049255 140.91494324 -9.97946167 140.89804077 C-15.24324942 140.96270733 -17.45375143 142.4298819 -20.65625 146.53125 Z " fill="#000000" transform="translate(482.65625,286.46875)"/>
<path d="M0 0 C3.7586418 2.08277032 6.17739981 4.78255172 8.5625 8.3125 C9.24241389 12.48911387 8.51944379 16.06942005 7 20 C4.3474049 23.28084131 1.88481114 25.40291098 -2 27 C-6.76054251 27.33756574 -10.32585934 26.3922273 -14.4375 24 C-17.70996708 20.16881903 -18.87044872 17.0265895 -19 12 C-17.75446474 7.32924279 -15.81348986 3.83562676 -11.8671875 0.890625 C-7.97302902 -0.96683971 -4.15500059 -0.93208544 0 0 Z " fill="#2196E0" transform="translate(533,624)"/>
<path d="M0 0 C3.43201009 3.00300883 5.18323592 5.55884532 6 10 C6 15.4339617 4.5042163 18.26074991 1 22.3125 C-2.39274323 25.1751271 -5.66574084 25.29046262 -10.0078125 25.2109375 C-14.40552029 24.74529785 -16.52157298 22.55600977 -19.3125 19.3125 C-21.35695579 15.299309 -21.88100208 12.41382041 -21 8 C-18.6571577 3.56533423 -16.04107923 0.0029775 -11.15234375 -1.609375 C-7.22205134 -2.32267671 -3.68668894 -1.42604545 0 0 Z " fill="#2196E0" transform="translate(497,608)"/>
<path d="M0 0 C2 1.625 2 1.625 3 4 C2.875 7.625 2.875 7.625 2 11 C-1.73255448 13.48836965 -3.58440935 13.54226552 -8 13 C-10.5 10.875 -10.5 10.875 -12 8 C-12 4.49267067 -11.6345092 2.7565302 -9.375 0.0625 C-5.88680246 -1.49800943 -3.63567102 -0.99154664 0 0 Z " fill="#000000" transform="translate(484,444)"/>
<path d="M0 0 C2.36604164 2.66179684 3.04466185 4.06210117 2.875 7.625 C1.88729401 10.30591626 1.42194927 11.46609879 -1 13 C-4.92005446 13.49891602 -7.11594538 13.55253414 -10.5 11.4375 C-12 9 -12 9 -12 5.4375 C-11 2 -11 2 -9.375 0 C-5.85025855 -1.48410166 -3.63189024 -1.05654989 0 0 Z " fill="#000000" transform="translate(540,444)"/>
<path d="M0 0 C2.34572071 2.11871548 2.89543972 3.4025127 3.4375 6.5 C3 9 3 9 1.4375 11.3125 C-1.89345318 13.61854451 -4.0324729 13.504958 -8 13 C-10.42194927 11.46609879 -10.88729401 10.30591626 -11.875 7.625 C-12.0376843 4.20862965 -11.02489572 2.69986096 -9 0 C-5.8168485 -1.59157575 -3.38676935 -0.77242108 0 0 Z " fill="#000000" transform="translate(512,444)"/>
<path d="M0 0 C3.7586418 2.08277032 6.17739981 4.78255172 8.5625 8.3125 C9.24241389 12.48911387 8.51944379 16.06942005 7 20 C4.3551332 23.27128262 1.89053924 25.43377189 -2 27 C-4.2890625 27.046875 -4.2890625 27.046875 -6.625 26.75 C-7.40101563 26.66234375 -8.17703125 26.5746875 -8.9765625 26.484375 C-11 26 -11 26 -13 24 C-8.71 24.33 -4.42 24.66 0 25 C0 24.34 0 23.68 0 23 C0.66 23 1.32 23 2 23 C2 22.34 2 21.68 2 21 C2.66 21 3.32 21 4 21 C4 20.34 4 19.68 4 19 C4.66 19 5.32 19 6 19 C6.15879773 11.783643 6.15879773 11.783643 3.87890625 5.125 C0.00764489 1.599949 -4.01804413 1.25768737 -9 1 C-9 1.66 -9 2.32 -9 3 C-10.66279327 4.0064275 -12.32983484 5.00585407 -14 6 C-17.34535104 11.01802656 -16.11416971 16.28988023 -15 22 C-17 21 -17 21 -17.73828125 19.1796875 C-18.78033881 14.99727962 -19.13274638 12.49779892 -18 8.25 C-13.45393478 0.86264402 -8.66562914 -1.9439484 0 0 Z " fill="#2196E0" transform="translate(533,624)"/>
<path d="M0 0 C-6.16436629 2.69380321 -11.0627673 3.41399733 -17.75 3.29296875 C-18.64871826 3.28872391 -19.54743652 3.28447906 -20.47338867 3.28010559 C-23.31591012 3.26344584 -26.15769645 3.22581832 -29 3.1875 C-30.93879177 3.17243671 -32.87759477 3.15875119 -34.81640625 3.14648438 C-39.54454979 3.1135841 -44.27215069 3.06189115 -49 3 C-49 3.66 -49 4.32 -49 5 C-49.66 5 -50.32 5 -51 5 C-50.67 3.68 -50.34 2.36 -50 1 C-49.10394043 1.01047363 -48.20788086 1.02094727 -47.28466797 1.03173828 C-43.88880731 1.06627839 -40.49313923 1.09111758 -37.09716797 1.10986328 C-35.64075738 1.1197839 -34.18436593 1.13332468 -32.72802734 1.15087891 C-23.90011728 1.25444997 -15.57616298 0.88833119 -6.85986328 -0.66455078 C-4.11558457 -0.98644244 -2.59839525 -0.74326321 0 0 Z " fill="#2196E0" transform="translate(436,708)"/>
<path d="M0 0 C3.18854345 2.46854977 3.97190193 3.8838613 4.9375 7.875 C5.25869837 11.98939817 4.2930042 14.52095914 2 18 C-0.36745572 20.73737067 -1.54129705 21.84709902 -5 23 C-10.4295631 23.35029439 -13.50002981 23.37497764 -18 20 C-14.90522086 20 -11.89553654 20.23479256 -8.8125 20.5 C-7.72582031 20.5928125 -6.63914062 20.685625 -5.51953125 20.78125 C-4.68808594 20.8534375 -3.85664063 20.925625 -3 21 C-2.87625 20.37738281 -2.7525 19.75476563 -2.625 19.11328125 C-2 17 -2 17 0 15.1875 C2.66764344 12.26976499 2.7028631 9.86277968 3 6 C2.34 6 1.68 6 1 6 C0.67 4.02 0.34 2.04 0 0 Z " fill="#2196E0" transform="translate(498,610)"/>
<path d="M0 0 C0.66 0 1.32 0 2 0 C1.6875 1.9375 1.6875 1.9375 1 4 C0.01 4.33 -0.98 4.66 -2 5 C-2.91457003 10.56157448 -3.32086397 14.675665 -1 20 C-4.11989469 17.01575291 -4.94014492 15.718261 -5.3125 11.25 C-5.27802255 6.51797061 -3.34688742 3.34688742 0 0 Z " fill="#2196E0" transform="translate(481,609)"/>
<path d="M0 0 C-3.70137365 3.54714975 -7.09254643 3.51729965 -12 4 C-12.33 4.33 -12.66 4.66 -13 5 C-15.33297433 5.04092937 -17.66705225 5.04241723 -20 5 C-16.9182501 2.94550007 -14.6904243 2.25524191 -11.125 1.375 C-10.09632813 1.11460937 -9.06765625 0.85421875 -8.0078125 0.5859375 C-5.24120939 0.04698884 -2.80715804 -0.11394368 0 0 Z " fill="#2196E0" transform="translate(548,672)"/>
<path d="M0 0 C3.04264809 2.35559852 4.30226183 4.19702482 4.875 7.9375 C5.16832524 11.42481123 4.6656742 13.86461327 3 17 C1.62567543 13.18243176 2.32024961 9.92744671 3 6 C2.34 6 1.68 6 1 6 C0.67 4.02 0.34 2.04 0 0 Z " fill="#2196E0" transform="translate(498,610)"/>
<path d="M0 0 C0.78761719 0.17144531 1.57523437 0.34289062 2.38671875 0.51953125 C4.3125 1.1875 4.3125 1.1875 5.3125 3.1875 C0.3625 2.8575 -4.5875 2.5275 -9.6875 2.1875 C-8.6875 0.1875 -8.6875 0.1875 -6.91796875 -0.48828125 C-4.35993224 -0.86011493 -2.51377536 -0.57754508 0 0 Z " fill="#2196E0" transform="translate(492.6875,606.8125)"/>
<path d="M0 0 C0.99 0.33 1.98 0.66 3 1 C2.484375 1.515625 1.96875 2.03125 1.4375 2.5625 C-0.57265701 5.9710271 0.20272604 8.23106857 1 12 C0.01 11.67 -0.98 11.34 -2 11 C-3.35384615 4.6 -3.35384615 4.6 -1.5625 1.5625 C-1.046875 1.046875 -0.53125 0.53125 0 0 Z " fill="#000000" transform="translate(531,444)"/>
<path d="M0 0 C-2.297221 1.74271938 -4.59866729 3.39911152 -7 5 C-7.73343428 8.06556598 -7.73343428 8.06556598 -8 11 C-8.66 10.01 -9.32 9.02 -10 8 C-8.59663521 1.74864775 -6.43731366 -0.3479629 0 0 Z " fill="#000000" transform="translate(510,443)"/>
<path d="M0 0 C0.33 1.32 0.66 2.64 1 4 C-0.21484375 5.921875 -0.21484375 5.921875 -1.9375 7.75 C-2.50339844 8.36359375 -3.06929687 8.9771875 -3.65234375 9.609375 C-4.31943359 10.29773438 -4.31943359 10.29773438 -5 11 C-5.66 10.67 -6.32 10.34 -7 10 C-3.535 5.05 -3.535 5.05 0 0 Z " fill="#000000" transform="translate(618,441)"/>
<path d="M0 0 C0 3.60573896 -0.81707462 4.41336566 -3 7.1875 C-3.556875 7.90292969 -4.11375 8.61835937 -4.6875 9.35546875 C-5.120625 9.89816406 -5.55375 10.44085937 -6 11 C-6.66 10.67 -7.32 10.34 -8 10 C-7.04367001 8.70684939 -6.08486149 7.41553147 -5.125 6.125 C-4.59132813 5.40570312 -4.05765625 4.68640625 -3.5078125 3.9453125 C-2 2 -2 2 0 0 Z " fill="#000000" transform="translate(320,819)"/>
<path d="M0 0 C0.75 1.75 0.75 1.75 1 4 C-0.9375 6.25 -0.9375 6.25 -3 8 C-3.99 7.67 -4.98 7.34 -6 7 C-5.34 7 -4.68 7 -4 7 C-3.896875 6.401875 -3.79375 5.80375 -3.6875 5.1875 C-2.91123545 2.71756736 -1.92911079 1.67748765 0 0 Z " fill="#2196E0" transform="translate(499,624)"/>
<path d="M0 0 C0.33 0 0.66 0 1 0 C1.38281159 5.23175837 0.21854707 8.37802694 -2 13 C-3.18771723 9.57056481 -2.80226223 7.62215325 -1.5625 4.25 C-1.27503906 3.45078125 -0.98757813 2.6515625 -0.69140625 1.828125 C-0.46324219 1.22484375 -0.23507812 0.6215625 0 0 Z " fill="#2196E0" transform="translate(384,713)"/>
<path d="M0 0 C2 3 2 3 2 7 C1.34 7 0.68 7 0 7 C0 7.66 0 8.32 0 9 C-0.66 9 -1.32 9 -2 9 C-1.34 6.03 -0.68 3.06 0 0 Z " fill="#000000" transform="translate(642,389)"/>
</svg>